<?xml version="1.0" encoding="UTF-8"?><!DOCTYPE svg PUBLIC "-//W3C//DTD SVG 1.1//EN" "http://www.w3.org/Graphics/SVG/1.1/DTD/svg11.dtd"><svg xmlns="http://www.w3.org/2000/svg" xmlns:xlink="http://www.w3.org/1999/xlink"><defs/><symbol id="achivment" viewBox="0 0 25 25">
<path d="M4.25 5.75C4.05109 5.75 3.86032 5.67098 3.71967 5.53033C3.57902 5.38968 3.5 5.19891 3.5 5C3.5 4.80109 3.57902 4.61032 3.71967 4.46967C3.86032 4.32902 4.05109 4.25 4.25 4.25H20.75C20.9489 4.25 21.1397 4.32902 21.2803 4.46967C21.421 4.61032 21.5 4.80109 21.5 5C21.5 5.19891 21.421 5.38968 21.2803 5.53033C21.1397 5.67098 20.9489 5.75 20.75 5.75H4.25ZM7.25 2.75C7.05109 2.75 6.86032 2.67098 6.71967 2.53033C6.57902 2.38968 6.5 2.19891 6.5 2C6.5 1.80109 6.57902 1.61032 6.71967 1.46967C6.86032 1.32902 7.05109 1.25 7.25 1.25H17.75C17.9489 1.25 18.1397 1.32902 18.2803 1.46967C18.421 1.61032 18.5 1.80109 18.5 2C18.5 2.19891 18.421 2.38968 18.2803 2.53033C18.1397 2.67098 17.9489 2.75 17.75 2.75H7.25ZM0.5 20C0.5 20.5967 0.737053 21.169 1.15901 21.591C1.58097 22.0129 2.15326 22.25 2.75 22.25H22.25C22.8467 22.25 23.419 22.0129 23.841 21.591C24.2629 21.169 24.5 20.5967 24.5 20V9.5C24.5 8.90326 24.2629 8.33097 23.841 7.90901C23.419 7.48705 22.8467 7.25 22.25 7.25H2.75C2.15326 7.25 1.58097 7.48705 1.15901 7.90901C0.737053 8.33097 0.5 8.90326 0.5 9.5L0.5 20ZM2.75 20.75C2.55109 20.75 2.36032 20.671 2.21967 20.5303C2.07902 20.3897 2 20.1989 2 20V9.5C2 9.30109 2.07902 9.11032 2.21967 8.96967C2.36032 8.82902 2.55109 8.75 2.75 8.75H22.25C22.4489 8.75 22.6397 8.82902 22.7803 8.96967C22.921 9.11032 23 9.30109 23 9.5V20C23 20.1989 22.921 20.3897 22.7803 20.5303C22.6397 20.671 22.4489 20.75 22.25 20.75H2.75Z" fill="inherit"/>
</symbol><symbol id="bag" viewBox="0 0 25 25">
<path d="M8.21411 11C8.21411 10.6342 8.28617 10.2719 8.42616 9.93396C8.56616 9.59598 8.77135 9.28889 9.03003 9.03021C9.55245 8.50779 10.261 8.21429 10.9998 8.21429H13.9998C14.3657 8.21429 14.7279 8.28635 15.0659 8.42634C15.4038 8.56634 15.7109 8.77153 15.9696 9.03021C16.2283 9.28889 16.4335 9.59598 16.5735 9.93396C16.7135 10.2719 16.7855 10.6342 16.7855 11C16.7855 11.3978 16.6275 11.7794 16.3462 12.0607C16.0649 12.342 15.6834 12.5 15.2855 12.5H9.71411C9.31629 12.5 8.93476 12.342 8.65345 12.0607C8.37215 11.7794 8.21411 11.3978 8.21411 11ZM10.9998 9.50001C10.602 9.50001 10.2205 9.65804 9.93916 9.93935C9.65786 10.2207 9.49983 10.6022 9.49983 11C9.49983 11.1183 9.59583 11.2143 9.71411 11.2143H15.2855C15.3424 11.2143 15.3969 11.1917 15.4371 11.1515C15.4772 11.1113 15.4998 11.0568 15.4998 11C15.4998 10.6022 15.3418 10.2207 15.0605 9.93935C14.7792 9.65804 14.3976 9.50001 13.9998 9.50001H10.9998Z" fill="inherit"/>
<path d="M12.4999 2.21429C11.4824 2.21432 10.498 2.57631 9.72288 3.23554C8.94776 3.89477 8.43242 4.80824 8.26904 5.81258C6.95458 6.53278 5.85805 7.5933 5.09437 8.88299C4.33069 10.1727 3.92799 11.644 3.92847 13.1429V19.5714C3.92847 20.4239 4.26711 21.2415 4.86991 21.8443C5.47271 22.4471 6.29027 22.7857 7.14275 22.7857H17.857C18.7095 22.7857 19.5271 22.4471 20.1299 21.8443C20.7327 21.2415 21.0713 20.4239 21.0713 19.5714V13.1429C21.0718 11.644 20.6691 10.1727 19.9054 8.88299C19.1417 7.5933 18.0452 6.53278 16.7308 5.81258C16.5674 4.80824 16.052 3.89477 15.2769 3.23554C14.5018 2.57631 13.5174 2.21432 12.4999 2.21429ZM12.2856 4.78572C11.4259 4.78572 10.597 4.91515 9.81704 5.15601C10.0663 4.65791 10.4493 4.23904 10.9231 3.9463C11.3969 3.65355 11.9429 3.4985 12.4999 3.4985C13.0569 3.4985 13.6028 3.65355 14.0767 3.9463C14.5505 4.23904 14.9335 4.65791 15.1828 5.15601C14.3831 4.90967 13.5509 4.78485 12.7142 4.78572H12.2856ZM12.2856 6.07144H12.7142C13.6428 6.07144 14.5624 6.25434 15.4203 6.60972C16.2782 6.96509 17.0578 7.48597 17.7144 8.14261C18.3711 8.79925 18.892 9.5788 19.2473 10.4367C19.6027 11.2947 19.7856 12.2142 19.7856 13.1429V14.2143H5.21418V13.1429C5.21418 11.2674 5.9592 9.46876 7.28535 8.14261C8.61151 6.81646 10.4102 6.07144 12.2856 6.07144ZM8.21418 15.5V17C8.21418 17.1705 8.28191 17.334 8.40247 17.4546C8.52303 17.5751 8.68654 17.6429 8.85704 17.6429C9.02753 17.6429 9.19105 17.5751 9.31161 17.4546C9.43217 17.334 9.4999 17.1705 9.4999 17V15.5H19.7856V19.5714C19.7856 20.0829 19.5824 20.5735 19.2207 20.9351C18.8591 21.2968 18.3685 21.5 17.857 21.5H7.14275C6.63126 21.5 6.14072 21.2968 5.77905 20.9351C5.41737 20.5735 5.21418 20.0829 5.21418 19.5714V15.5H8.21418Z" fill="inherit"/>
</symbol><symbol id="coins" viewBox="0 0 20 19">
<path d="M10 8.49994C15.5234 8.49994 20 6.63275 20 4.33197C20 2.03119 15.5234 0.164001 10 0.164001C4.47656 0.164001 0 2.03119 0 4.33197C0 6.63275 4.47656 8.49994 10 8.49994ZM10 15.164C6.18359 15.164 2.80859 14.246 0.679688 12.8281C0.246094 13.2968 0 13.8007 0 14.332C0 16.6327 4.47656 18.4999 10 18.4999C15.5234 18.4999 20 16.6327 20 14.332C20 13.8007 19.7539 13.2968 19.3203 12.832C17.1914 14.246 13.8164 15.164 10 15.164ZM10 10.164C6.18359 10.164 2.80859 9.24603 0.679688 7.82806C0.246094 8.29681 0 8.80072 0 9.33197C0 11.6328 4.47656 13.4999 10 13.4999C15.5234 13.4999 20 11.6328 20 9.33197C20 8.80072 19.7539 8.29681 19.3203 7.83197C17.1914 9.24603 13.8164 10.164 10 10.164Z" fill="#F8D156"/>
</symbol><symbol id="collection" viewBox="0 0 21 21">
<path d="M9.56592 6.50398L9.74992 6.49898H17.2499C18.0799 6.49891 18.8784 6.81638 19.4818 7.38629C20.0852 7.9562 20.4477 8.73535 20.4949 9.56398L20.4999 9.74898V17.249C20.5 18.0791 20.1824 18.8778 19.6122 19.4812C19.0421 20.0846 18.2627 20.447 17.4339 20.494L17.2499 20.499H9.74992C8.91978 20.499 8.12109 20.1814 7.51769 19.6113C6.91429 19.0412 6.55192 18.2618 6.50492 17.433L6.49992 17.25V9.74998C6.49987 8.91984 6.81748 8.12115 7.38759 7.51775C7.95771 6.91435 8.73711 6.55198 9.56592 6.50498V6.50398ZM17.2499 7.99898H9.74992C9.31073 7.999 8.8876 8.16415 8.56453 8.46166C8.24146 8.75917 8.04206 9.16728 8.00592 9.60498L7.99992 9.74898V17.249C7.99996 17.6883 8.16525 18.1116 8.46297 18.4347C8.76069 18.7578 9.16904 18.9571 9.60692 18.993L9.74992 18.999H17.2499C17.6893 18.9989 18.1125 18.8337 18.4356 18.5359C18.7587 18.2382 18.958 17.8299 18.9939 17.392L18.9999 17.249V9.74898C18.9999 9.28485 18.8155 8.83973 18.4874 8.51155C18.1592 8.18336 17.7141 7.99898 17.2499 7.99898ZM13.4999 9.49998C13.6988 9.49998 13.8896 9.579 14.0303 9.71965C14.1709 9.8603 14.2499 10.0511 14.2499 10.25V12.748H16.7499C16.9488 12.748 17.1396 12.827 17.2803 12.9677C17.4209 13.1083 17.4999 13.2991 17.4999 13.498C17.4999 13.6969 17.4209 13.8877 17.2803 14.0283C17.1396 14.169 16.9488 14.248 16.7499 14.248H14.2499V16.75C14.2499 16.9489 14.1709 17.1397 14.0303 17.2803C13.8896 17.421 13.6988 17.5 13.4999 17.5C13.301 17.5 13.1102 17.421 12.9696 17.2803C12.8289 17.1397 12.7499 16.9489 12.7499 16.75V14.248H10.2499C10.051 14.248 9.86024 14.169 9.71959 14.0283C9.57894 13.8877 9.49992 13.6969 9.49992 13.498C9.49992 13.2991 9.57894 13.1083 9.71959 12.9677C9.86024 12.827 10.051 12.748 10.2499 12.748H12.7499V10.25C12.7499 10.0511 12.8289 9.8603 12.9696 9.71965C13.1102 9.579 13.301 9.49998 13.4999 9.49998ZM14.0819 2.73298L14.1339 2.90998L14.8269 5.49798H13.2739L12.6859 3.29798C12.6265 3.07587 12.5239 2.86765 12.384 2.68521C12.2441 2.50277 12.0696 2.34969 11.8704 2.23472C11.6713 2.11975 11.4515 2.04514 11.2236 2.01516C10.9956 1.98518 10.764 2.00041 10.5419 2.05998L3.29792 4.00198C2.87505 4.11538 2.51004 4.38316 2.27493 4.75249C2.03982 5.12182 1.95169 5.56586 2.02792 5.99698L2.05992 6.14498L4.00192 13.389C4.09301 13.7294 4.28474 14.0344 4.55202 14.264C4.8193 14.4936 5.14968 14.6372 5.49992 14.676V16.182C4.84974 16.1432 4.22618 15.9101 3.71002 15.5129C3.19385 15.1156 2.80886 14.5726 2.60492 13.954L2.55292 13.778L0.611921 6.53298C0.396924 5.73136 0.496757 4.87785 0.890949 4.14748C1.28514 3.41711 1.94382 2.86522 2.73192 2.60498L2.90992 2.55298L10.1539 0.611982C10.9555 0.396985 11.8091 0.496818 12.5394 0.89101C13.2698 1.2852 13.8217 1.94388 14.0819 2.73198V2.73298Z" fill="inherit"/>
</symbol><symbol id="map" viewBox="0 0 25 25">
<g clip-path="url(#clip0)">
<path d="M1.5 6.5V22.5L8.5 18.5L16.5 22.5L23.5 18.5V2.5L16.5 6.5L8.5 2.5L1.5 6.5Z" stroke="inherit" stroke-width="2" stroke-linecap="round" stroke-linejoin="round" fill="transparent"/>
<path d="M8.5 2.5V18.5" stroke="inherit" stroke-width="2" stroke-linecap="round" stroke-linejoin="round"/>
<path d="M16.5 6.5V22.5" stroke="inherit" stroke-width="2" stroke-linecap="round" stroke-linejoin="round"/>
</g>
</symbol></svg>