<svg width="25" height="25" viewBox="0 0 25 25" fill="none" xmlns="http://www.w3.org/2000/svg">
<path d="M8.21411 11C8.21411 10.6342 8.28617 10.2719 8.42616 9.93396C8.56616 9.59598 8.77135 9.28889 9.03003 9.03021C9.55245 8.50779 10.261 8.21429 10.9998 8.21429H13.9998C14.3657 8.21429 14.7279 8.28635 15.0659 8.42634C15.4038 8.56634 15.7109 8.77153 15.9696 9.03021C16.2283 9.28889 16.4335 9.59598 16.5735 9.93396C16.7135 10.2719 16.7855 10.6342 16.7855 11C16.7855 11.3978 16.6275 11.7794 16.3462 12.0607C16.0649 12.342 15.6834 12.5 15.2855 12.5H9.71411C9.31629 12.5 8.93476 12.342 8.65345 12.0607C8.37215 11.7794 8.21411 11.3978 8.21411 11ZM10.9998 9.50001C10.602 9.50001 10.2205 9.65804 9.93916 9.93935C9.65786 10.2207 9.49983 10.6022 9.49983 11C9.49983 11.1183 9.59583 11.2143 9.71411 11.2143H15.2855C15.3424 11.2143 15.3969 11.1917 15.4371 11.1515C15.4772 11.1113 15.4998 11.0568 15.4998 11C15.4998 10.6022 15.3418 10.2207 15.0605 9.93935C14.7792 9.65804 14.3976 9.50001 13.9998 9.50001H10.9998Z" fill="inherit"/>
<path d="M12.4999 2.21429C11.4824 2.21432 10.498 2.57631 9.72288 3.23554C8.94776 3.89477 8.43242 4.80824 8.26904 5.81258C6.95458 6.53278 5.85805 7.5933 5.09437 8.88299C4.33069 10.1727 3.92799 11.644 3.92847 13.1429V19.5714C3.92847 20.4239 4.26711 21.2415 4.86991 21.8443C5.47271 22.4471 6.29027 22.7857 7.14275 22.7857H17.857C18.7095 22.7857 19.5271 22.4471 20.1299 21.8443C20.7327 21.2415 21.0713 20.4239 21.0713 19.5714V13.1429C21.0718 11.644 20.6691 10.1727 19.9054 8.88299C19.1417 7.5933 18.0452 6.53278 16.7308 5.81258C16.5674 4.80824 16.052 3.89477 15.2769 3.23554C14.5018 2.57631 13.5174 2.21432 12.4999 2.21429ZM12.2856 4.78572C11.4259 4.78572 10.597 4.91515 9.81704 5.15601C10.0663 4.65791 10.4493 4.23904 10.9231 3.9463C11.3969 3.65355 11.9429 3.4985 12.4999 3.4985C13.0569 3.4985 13.6028 3.65355 14.0767 3.9463C14.5505 4.23904 14.9335 4.65791 15.1828 5.15601C14.3831 4.90967 13.5509 4.78485 12.7142 4.78572H12.2856ZM12.2856 6.07144H12.7142C13.6428 6.07144 14.5624 6.25434 15.4203 6.60972C16.2782 6.96509 17.0578 7.48597 17.7144 8.14261C18.3711 8.79925 18.892 9.5788 19.2473 10.4367C19.6027 11.2947 19.7856 12.2142 19.7856 13.1429V14.2143H5.21418V13.1429C5.21418 11.2674 5.9592 9.46876 7.28535 8.14261C8.61151 6.81646 10.4102 6.07144 12.2856 6.07144ZM8.21418 15.5V17C8.21418 17.1705 8.28191 17.334 8.40247 17.4546C8.52303 17.5751 8.68654 17.6429 8.85704 17.6429C9.02753 17.6429 9.19105 17.5751 9.31161 17.4546C9.43217 17.334 9.4999 17.1705 9.4999 17V15.5H19.7856V19.5714C19.7856 20.0829 19.5824 20.5735 19.2207 20.9351C18.8591 21.2968 18.3685 21.5 17.857 21.5H7.14275C6.63126 21.5 6.14072 21.2968 5.77905 20.9351C5.41737 20.5735 5.21418 20.0829 5.21418 19.5714V15.5H8.21418Z" fill="inherit"/>
</svg>
