<svg width="25" height="25" viewBox="0 0 25 25" fill="none" xmlns="http://www.w3.org/2000/svg">
<path d="M4.25 5.75C4.05109 5.75 3.86032 5.67098 3.71967 5.53033C3.57902 5.38968 3.5 5.19891 3.5 5C3.5 4.80109 3.57902 4.61032 3.71967 4.46967C3.86032 4.32902 4.05109 4.25 4.25 4.25H20.75C20.9489 4.25 21.1397 4.32902 21.2803 4.46967C21.421 4.61032 21.5 4.80109 21.5 5C21.5 5.19891 21.421 5.38968 21.2803 5.53033C21.1397 5.67098 20.9489 5.75 20.75 5.75H4.25ZM7.25 2.75C7.05109 2.75 6.86032 2.67098 6.71967 2.53033C6.57902 2.38968 6.5 2.19891 6.5 2C6.5 1.80109 6.57902 1.61032 6.71967 1.46967C6.86032 1.32902 7.05109 1.25 7.25 1.25H17.75C17.9489 1.25 18.1397 1.32902 18.2803 1.46967C18.421 1.61032 18.5 1.80109 18.5 2C18.5 2.19891 18.421 2.38968 18.2803 2.53033C18.1397 2.67098 17.9489 2.75 17.75 2.75H7.25ZM0.5 20C0.5 20.5967 0.737053 21.169 1.15901 21.591C1.58097 22.0129 2.15326 22.25 2.75 22.25H22.25C22.8467 22.25 23.419 22.0129 23.841 21.591C24.2629 21.169 24.5 20.5967 24.5 20V9.5C24.5 8.90326 24.2629 8.33097 23.841 7.90901C23.419 7.48705 22.8467 7.25 22.25 7.25H2.75C2.15326 7.25 1.58097 7.48705 1.15901 7.90901C0.737053 8.33097 0.5 8.90326 0.5 9.5L0.5 20ZM2.75 20.75C2.55109 20.75 2.36032 20.671 2.21967 20.5303C2.07902 20.3897 2 20.1989 2 20V9.5C2 9.30109 2.07902 9.11032 2.21967 8.96967C2.36032 8.82902 2.55109 8.75 2.75 8.75H22.25C22.4489 8.75 22.6397 8.82902 22.7803 8.96967C22.921 9.11032 23 9.30109 23 9.5V20C23 20.1989 22.921 20.3897 22.7803 20.5303C22.6397 20.671 22.4489 20.75 22.25 20.75H2.75Z" fill="inherit"/>
</svg>
