<svg width="20" height="19" viewBox="0 0 20 19" fill="none" xmlns="http://www.w3.org/2000/svg">
<path d="M10 8.49994C15.5234 8.49994 20 6.63275 20 4.33197C20 2.03119 15.5234 0.164001 10 0.164001C4.47656 0.164001 0 2.03119 0 4.33197C0 6.63275 4.47656 8.49994 10 8.49994ZM10 15.164C6.18359 15.164 2.80859 14.246 0.679688 12.8281C0.246094 13.2968 0 13.8007 0 14.332C0 16.6327 4.47656 18.4999 10 18.4999C15.5234 18.4999 20 16.6327 20 14.332C20 13.8007 19.7539 13.2968 19.3203 12.832C17.1914 14.246 13.8164 15.164 10 15.164ZM10 10.164C6.18359 10.164 2.80859 9.24603 0.679688 7.82806C0.246094 8.29681 0 8.80072 0 9.33197C0 11.6328 4.47656 13.4999 10 13.4999C15.5234 13.4999 20 11.6328 20 9.33197C20 8.80072 19.7539 8.29681 19.3203 7.83197C17.1914 9.24603 13.8164 10.164 10 10.164Z" fill="#F8D156"/>
</svg>
