<svg width="21" height="21" viewBox="0 0 21 21" fill="none" xmlns="http://www.w3.org/2000/svg">
<path d="M9.56592 6.50398L9.74992 6.49898H17.2499C18.0799 6.49891 18.8784 6.81638 19.4818 7.38629C20.0852 7.9562 20.4477 8.73535 20.4949 9.56398L20.4999 9.74898V17.249C20.5 18.0791 20.1824 18.8778 19.6122 19.4812C19.0421 20.0846 18.2627 20.447 17.4339 20.494L17.2499 20.499H9.74992C8.91978 20.499 8.12109 20.1814 7.51769 19.6113C6.91429 19.0412 6.55192 18.2618 6.50492 17.433L6.49992 17.25V9.74998C6.49987 8.91984 6.81748 8.12115 7.38759 7.51775C7.95771 6.91435 8.73711 6.55198 9.56592 6.50498V6.50398ZM17.2499 7.99898H9.74992C9.31073 7.999 8.8876 8.16415 8.56453 8.46166C8.24146 8.75917 8.04206 9.16728 8.00592 9.60498L7.99992 9.74898V17.249C7.99996 17.6883 8.16525 18.1116 8.46297 18.4347C8.76069 18.7578 9.16904 18.9571 9.60692 18.993L9.74992 18.999H17.2499C17.6893 18.9989 18.1125 18.8337 18.4356 18.5359C18.7587 18.2382 18.958 17.8299 18.9939 17.392L18.9999 17.249V9.74898C18.9999 9.28485 18.8155 8.83973 18.4874 8.51155C18.1592 8.18336 17.7141 7.99898 17.2499 7.99898ZM13.4999 9.49998C13.6988 9.49998 13.8896 9.579 14.0303 9.71965C14.1709 9.8603 14.2499 10.0511 14.2499 10.25V12.748H16.7499C16.9488 12.748 17.1396 12.827 17.2803 12.9677C17.4209 13.1083 17.4999 13.2991 17.4999 13.498C17.4999 13.6969 17.4209 13.8877 17.2803 14.0283C17.1396 14.169 16.9488 14.248 16.7499 14.248H14.2499V16.75C14.2499 16.9489 14.1709 17.1397 14.0303 17.2803C13.8896 17.421 13.6988 17.5 13.4999 17.5C13.301 17.5 13.1102 17.421 12.9696 17.2803C12.8289 17.1397 12.7499 16.9489 12.7499 16.75V14.248H10.2499C10.051 14.248 9.86024 14.169 9.71959 14.0283C9.57894 13.8877 9.49992 13.6969 9.49992 13.498C9.49992 13.2991 9.57894 13.1083 9.71959 12.9677C9.86024 12.827 10.051 12.748 10.2499 12.748H12.7499V10.25C12.7499 10.0511 12.8289 9.8603 12.9696 9.71965C13.1102 9.579 13.301 9.49998 13.4999 9.49998ZM14.0819 2.73298L14.1339 2.90998L14.8269 5.49798H13.2739L12.6859 3.29798C12.6265 3.07587 12.5239 2.86765 12.384 2.68521C12.2441 2.50277 12.0696 2.34969 11.8704 2.23472C11.6713 2.11975 11.4515 2.04514 11.2236 2.01516C10.9956 1.98518 10.764 2.00041 10.5419 2.05998L3.29792 4.00198C2.87505 4.11538 2.51004 4.38316 2.27493 4.75249C2.03982 5.12182 1.95169 5.56586 2.02792 5.99698L2.05992 6.14498L4.00192 13.389C4.09301 13.7294 4.28474 14.0344 4.55202 14.264C4.8193 14.4936 5.14968 14.6372 5.49992 14.676V16.182C4.84974 16.1432 4.22618 15.9101 3.71002 15.5129C3.19385 15.1156 2.80886 14.5726 2.60492 13.954L2.55292 13.778L0.611921 6.53298C0.396924 5.73136 0.496757 4.87785 0.890949 4.14748C1.28514 3.41711 1.94382 2.86522 2.73192 2.60498L2.90992 2.55298L10.1539 0.611982C10.9555 0.396985 11.8091 0.496818 12.5394 0.89101C13.2698 1.2852 13.8217 1.94388 14.0819 2.73198V2.73298Z" fill="inherit"/>
</svg>
